<svg width="525" height="229" viewBox="0 0 525 229" fill="none" xmlns="http://www.w3.org/2000/svg">
<path d="M92.7049 166C85.3769 166 79.9529 164.256 76.4329 160.768C72.9449 157.248 71.2009 151.824 71.2009 144.496V104.944C71.2009 103.6 71.5369 102.592 72.2089 101.92C72.8809 101.248 73.8889 100.912 75.2329 100.912C76.5769 100.912 77.5849 101.248 78.2569 101.92C78.9289 102.592 79.2649 103.6 79.2649 104.944V144.496C79.2649 147.92 79.6649 150.608 80.4649 152.56C81.2969 154.512 82.6889 155.904 84.6409 156.736C86.5929 157.536 89.2809 157.936 92.7049 157.936H104.225C107.649 157.936 110.337 157.536 112.289 156.736C114.241 155.904 115.617 154.512 116.417 152.56C117.249 150.608 117.665 147.92 117.665 144.496V104.944C117.665 103.6 118.001 102.592 118.673 101.92C119.345 101.248 120.353 100.912 121.697 100.912C123.041 100.912 124.049 101.248 124.721 101.92C125.393 102.592 125.729 103.6 125.729 104.944V144.496C125.729 151.824 123.985 157.248 120.497 160.768C117.009 164.256 111.585 166 104.225 166H92.7049ZM207.101 117.328C213.149 117.328 217.485 118.752 220.109 121.6C222.765 124.448 224.093 129.168 224.093 135.76V161.968C224.093 164.656 222.749 166 220.061 166C217.373 166 216.029 164.656 216.029 161.968V135.76C216.029 132.112 215.325 129.472 213.917 127.84C212.541 126.208 210.269 125.392 207.101 125.392H203.165C199.517 125.392 196.909 126.208 195.341 127.84C193.773 129.472 192.989 132.112 192.989 135.76V161.968C192.989 164.656 191.645 166 188.957 166C186.269 166 184.925 164.656 184.925 161.968V135.76C184.925 132.112 184.221 129.472 182.813 127.84C181.437 126.208 179.165 125.392 175.997 125.392H172.061C168.413 125.392 165.805 126.208 164.237 127.84C162.669 129.472 161.885 132.112 161.885 135.76V161.968C161.885 164.656 160.541 166 157.853 166C155.165 166 153.821 164.656 153.821 161.968V121.36C153.821 118.672 155.165 117.328 157.853 117.328C160.541 117.328 161.885 118.672 161.885 121.36V123.568C163.581 121.36 165.437 119.776 167.453 118.816C169.501 117.824 171.933 117.328 174.749 117.328H175.997C179.965 117.328 183.085 117.888 185.357 119.008C187.629 120.096 189.357 121.872 190.541 124.336C192.237 121.808 194.029 120.016 195.917 118.96C197.837 117.872 200.253 117.328 203.165 117.328H207.101ZM272.735 166C265.407 166 259.983 164.256 256.463 160.768C252.975 157.248 251.231 151.824 251.231 144.496V104.944C251.231 103.6 251.567 102.592 252.239 101.92C252.911 101.248 253.919 100.912 255.263 100.912C256.607 100.912 257.615 101.248 258.287 101.92C258.959 102.592 259.295 103.6 259.295 104.944V144.496C259.295 147.92 259.695 150.608 260.495 152.56C261.327 154.512 262.719 155.904 264.671 156.736C266.623 157.536 269.311 157.936 272.735 157.936H284.255C287.679 157.936 290.367 157.536 292.319 156.736C294.271 155.904 295.647 154.512 296.447 152.56C297.279 150.608 297.695 147.92 297.695 144.496V104.944C297.695 103.6 298.031 102.592 298.703 101.92C299.375 101.248 300.383 100.912 301.727 100.912C303.071 100.912 304.079 101.248 304.751 101.92C305.423 102.592 305.759 103.6 305.759 104.944V144.496C305.759 151.824 304.015 157.248 300.527 160.768C297.039 164.256 291.615 166 284.255 166H272.735ZM369.606 165.616C367.046 164.624 366.278 162.864 367.302 160.336L390.15 104.08C391.11 101.968 392.614 100.912 394.662 100.912H394.854C396.934 101.008 398.342 102.064 399.078 104.08L422.31 160.336C423.334 162.864 422.598 164.624 420.102 165.616C417.574 166.608 415.814 165.872 414.822 163.408L409.638 150.832H379.734L374.79 163.408C373.798 165.904 372.07 166.64 369.606 165.616ZM382.902 142.768H406.326L394.374 113.68L382.902 142.768ZM449.288 166C447.912 166 446.888 165.68 446.216 165.04C445.576 164.368 445.256 163.344 445.256 161.968V105.04C445.256 103.632 445.576 102.608 446.216 101.968C446.888 101.328 447.912 101.008 449.288 101.008C450.696 101.008 451.72 101.328 452.36 101.968C453 102.608 453.32 103.632 453.32 105.04V161.968C453.32 163.344 453 164.368 452.36 165.04C451.72 165.68 450.696 166 449.288 166Z" fill="white"/>
<path d="M76.4329 160.768L72.8812 164.287L72.8973 164.304L72.9135 164.32L76.4329 160.768ZM78.2569 101.92L81.7924 98.3845L81.7924 98.3845L78.2569 101.92ZM80.4649 152.56L75.8383 154.456L75.8516 154.488L75.8653 154.52L80.4649 152.56ZM84.6409 156.736L82.6804 161.336L82.7125 161.349L82.7448 161.363L84.6409 156.736ZM112.289 156.736L114.185 161.363L114.217 161.349L114.249 161.336L112.289 156.736ZM116.417 152.56L111.817 150.6L111.804 150.632L111.79 150.664L116.417 152.56ZM120.497 160.768L124.032 164.304L124.04 164.295L124.049 164.287L120.497 160.768ZM92.7049 166V161C86.0687 161 82.1692 159.413 79.9522 157.216L76.4329 160.768L72.9135 164.32C77.7365 169.099 84.685 171 92.7049 171V166ZM76.4329 160.768L79.9845 157.249C77.7876 155.032 76.2009 151.132 76.2009 144.496H71.2009H66.2009C66.2009 152.516 68.1021 159.464 72.8812 164.287L76.4329 160.768ZM71.2009 144.496H76.2009V104.944H71.2009H66.2009V144.496H71.2009ZM71.2009 104.944H76.2009C76.2009 104.674 76.2364 104.641 76.1963 104.761C76.1481 104.906 76.0192 105.181 75.7444 105.456L72.2089 101.92L68.6733 98.3845C66.7329 100.325 66.2009 102.829 66.2009 104.944H71.2009ZM72.2089 101.92L75.7444 105.456C75.4696 105.73 75.1945 105.859 75.05 105.907C74.9297 105.948 74.9626 105.912 75.2329 105.912V100.912V95.912C73.1181 95.912 70.6137 96.4441 68.6733 98.3845L72.2089 101.92ZM75.2329 100.912V105.912C75.5031 105.912 75.536 105.948 75.4157 105.907C75.2712 105.859 74.9961 105.73 74.7213 105.456L78.2569 101.92L81.7924 98.3845C79.852 96.4441 77.3476 95.912 75.2329 95.912V100.912ZM78.2569 101.92L74.7213 105.456C74.4465 105.181 74.3176 104.906 74.2695 104.761C74.2293 104.641 74.2649 104.674 74.2649 104.944H79.2649H84.2649C84.2649 102.829 83.7328 100.325 81.7924 98.3845L78.2569 101.92ZM79.2649 104.944H74.2649V144.496H79.2649H84.2649V104.944H79.2649ZM79.2649 144.496H74.2649C74.2649 148.215 74.6856 151.643 75.8383 154.456L80.4649 152.56L85.0914 150.664C84.6441 149.573 84.2649 147.625 84.2649 144.496H79.2649ZM80.4649 152.56L75.8653 154.52C77.2033 157.66 79.541 159.998 82.6804 161.336L84.6409 156.736L86.6014 152.136C85.8367 151.81 85.3904 151.364 85.0645 150.6L80.4649 152.56ZM84.6409 156.736L82.7448 161.363C85.5575 162.515 88.9858 162.936 92.7049 162.936V157.936V152.936C89.5759 152.936 87.6283 152.557 86.537 152.109L84.6409 156.736ZM92.7049 157.936V162.936H104.225V157.936V152.936H92.7049V157.936ZM104.225 157.936V162.936C107.944 162.936 111.372 162.515 114.185 161.363L112.289 156.736L110.393 152.109C109.301 152.557 107.354 152.936 104.225 152.936V157.936ZM112.289 156.736L114.249 161.336C117.403 159.991 119.741 157.633 121.043 154.456L116.417 152.56L111.79 150.664C111.492 151.391 111.079 151.817 110.328 152.136L112.289 156.736ZM116.417 152.56L121.016 154.52C122.225 151.684 122.665 148.23 122.665 144.496H117.665H112.665C112.665 147.61 112.272 149.532 111.817 150.6L116.417 152.56ZM117.665 144.496H122.665V104.944H117.665H112.665V144.496H117.665ZM117.665 104.944H122.665C122.665 104.674 122.7 104.641 122.66 104.761C122.612 104.906 122.483 105.181 122.208 105.456L118.673 101.92L115.137 98.3845C113.197 100.325 112.665 102.829 112.665 104.944H117.665ZM118.673 101.92L122.208 105.456C121.934 105.73 121.659 105.859 121.514 105.907C121.394 105.948 121.427 105.912 121.697 105.912V100.912V95.912C119.582 95.912 117.078 96.4441 115.137 98.3845L118.673 101.92ZM121.697 100.912V105.912C121.967 105.912 122 105.948 121.88 105.907C121.735 105.859 121.46 105.73 121.185 105.456L124.721 101.92L128.256 98.3845C126.316 96.4441 123.812 95.912 121.697 95.912V100.912ZM124.721 101.92L121.185 105.456C120.911 105.181 120.782 104.906 120.733 104.761C120.693 104.641 120.729 104.674 120.729 104.944H125.729H130.729C130.729 102.829 130.197 100.325 128.256 98.3845L124.721 101.92ZM125.729 104.944H120.729V144.496H125.729H130.729V104.944H125.729ZM125.729 144.496H120.729C120.729 151.132 119.142 155.032 116.945 157.249L120.497 160.768L124.049 164.287C128.828 159.464 130.729 152.516 130.729 144.496H125.729ZM120.497 160.768L116.961 157.232C114.786 159.408 110.905 161 104.225 161V166V171C112.265 171 119.232 169.104 124.032 164.304L120.497 160.768ZM104.225 166V161H92.7049V166V171H104.225V166ZM220.109 121.6L216.432 124.988L216.442 124.999L216.452 125.01L220.109 121.6ZM213.917 127.84L210.094 131.063L210.113 131.085L210.131 131.106L213.917 127.84ZM182.813 127.84L178.99 131.063L179.009 131.085L179.027 131.106L182.813 127.84ZM164.237 127.84L160.631 124.376L160.631 124.376L164.237 127.84ZM161.885 123.568H156.885V138.286L165.85 126.614L161.885 123.568ZM167.453 118.816L169.603 123.33L169.618 123.323L169.633 123.316L167.453 118.816ZM185.357 119.008L183.146 123.493L183.172 123.505L183.197 123.518L185.357 119.008ZM190.541 124.336L186.034 126.502L189.821 134.383L194.693 127.122L190.541 124.336ZM195.917 118.96L198.358 123.324L198.37 123.317L198.382 123.31L195.917 118.96ZM207.101 117.328V122.328C212.525 122.328 215.175 123.624 216.432 124.988L220.109 121.6L223.786 118.212C219.795 113.88 213.773 112.328 207.101 112.328V117.328ZM220.109 121.6L216.452 125.01C217.815 126.472 219.093 129.619 219.093 135.76H224.093H229.093C229.093 128.717 227.714 122.424 223.766 118.19L220.109 121.6ZM224.093 135.76H219.093V161.968H224.093H229.093V135.76H224.093ZM224.093 161.968H219.093C219.093 162.238 219.057 162.271 219.097 162.151C219.146 162.006 219.275 161.731 219.549 161.456C219.824 161.182 220.099 161.053 220.244 161.005C220.364 160.964 220.331 161 220.061 161V166V171C222.176 171 224.68 170.468 226.62 168.528C228.561 166.587 229.093 164.083 229.093 161.968H224.093ZM220.061 166V161C219.791 161 219.758 160.964 219.878 161.005C220.023 161.053 220.298 161.182 220.572 161.456C220.847 161.731 220.976 162.006 221.024 162.151C221.064 162.271 221.029 162.238 221.029 161.968H216.029H211.029C211.029 164.083 211.561 166.587 213.501 168.528C215.442 170.468 217.946 171 220.061 171V166ZM216.029 161.968H221.029V135.76H216.029H211.029V161.968H216.029ZM216.029 135.76H221.029C221.029 131.677 220.279 127.561 217.703 124.574L213.917 127.84L210.131 131.106C210.37 131.383 211.029 132.547 211.029 135.76H216.029ZM213.917 127.84L217.739 124.617C215.027 121.4 211.015 120.392 207.101 120.392V125.392V130.392C209.523 130.392 210.054 131.016 210.094 131.063L213.917 127.84ZM207.101 125.392V120.392H203.165V125.392V130.392H207.101V125.392ZM203.165 125.392V120.392C198.96 120.392 194.686 121.304 191.735 124.376L195.341 127.84L198.946 131.304C199.131 131.112 200.074 130.392 203.165 130.392V125.392ZM195.341 127.84L191.735 124.376C188.86 127.369 187.989 131.574 187.989 135.76H192.989H197.989C197.989 132.65 198.686 131.575 198.946 131.304L195.341 127.84ZM192.989 135.76H187.989V161.968H192.989H197.989V135.76H192.989ZM192.989 161.968H187.989C187.989 162.238 187.953 162.271 187.993 162.151C188.042 162.006 188.171 161.731 188.445 161.456C188.72 161.182 188.995 161.053 189.14 161.005C189.26 160.964 189.227 161 188.957 161V166V171C191.072 171 193.576 170.468 195.516 168.528C197.457 166.587 197.989 164.083 197.989 161.968H192.989ZM188.957 166V161C188.687 161 188.654 160.964 188.774 161.005C188.919 161.053 189.194 161.182 189.468 161.456C189.743 161.731 189.872 162.006 189.92 162.151C189.96 162.271 189.925 162.238 189.925 161.968H184.925H179.925C179.925 164.083 180.457 166.587 182.397 168.528C184.338 170.468 186.842 171 188.957 171V166ZM184.925 161.968H189.925V135.76H184.925H179.925V161.968H184.925ZM184.925 135.76H189.925C189.925 131.677 189.175 127.561 186.599 124.574L182.813 127.84L179.027 131.106C179.266 131.383 179.925 132.547 179.925 135.76H184.925ZM182.813 127.84L186.635 124.617C183.923 121.4 179.911 120.392 175.997 120.392V125.392V130.392C178.419 130.392 178.95 131.016 178.99 131.063L182.813 127.84ZM175.997 125.392V120.392H172.061V125.392V130.392H175.997V125.392ZM172.061 125.392V120.392C167.856 120.392 163.582 121.304 160.631 124.376L164.237 127.84L167.842 131.304C168.027 131.112 168.97 130.392 172.061 130.392V125.392ZM164.237 127.84L160.631 124.376C157.756 127.369 156.885 131.574 156.885 135.76H161.885H166.885C166.885 132.65 167.582 131.575 167.842 131.304L164.237 127.84ZM161.885 135.76H156.885V161.968H161.885H166.885V135.76H161.885ZM161.885 161.968H156.885C156.885 162.238 156.849 162.271 156.889 162.151C156.938 162.006 157.067 161.731 157.341 161.456C157.616 161.182 157.891 161.053 158.036 161.005C158.156 160.964 158.123 161 157.853 161V166V171C159.968 171 162.472 170.468 164.412 168.528C166.353 166.587 166.885 164.083 166.885 161.968H161.885ZM157.853 166V161C157.583 161 157.55 160.964 157.67 161.005C157.815 161.053 158.09 161.182 158.364 161.456C158.639 161.731 158.768 162.006 158.816 162.151C158.856 162.271 158.821 162.238 158.821 161.968H153.821H148.821C148.821 164.083 149.353 166.587 151.293 168.528C153.234 170.468 155.738 171 157.853 171V166ZM153.821 161.968H158.821V121.36H153.821H148.821V161.968H153.821ZM153.821 121.36H158.821C158.821 121.09 158.856 121.057 158.816 121.177C158.768 121.322 158.639 121.597 158.364 121.872C158.09 122.146 157.815 122.275 157.67 122.323C157.55 122.364 157.583 122.328 157.853 122.328V117.328V112.328C155.738 112.328 153.234 112.86 151.293 114.8C149.353 116.741 148.821 119.245 148.821 121.36H153.821ZM157.853 117.328V122.328C158.123 122.328 158.156 122.364 158.036 122.323C157.891 122.275 157.616 122.146 157.341 121.872C157.067 121.597 156.938 121.322 156.889 121.177C156.849 121.057 156.885 121.09 156.885 121.36H161.885H166.885C166.885 119.245 166.353 116.741 164.412 114.8C162.472 112.86 159.968 112.328 157.853 112.328V117.328ZM161.885 121.36H156.885V123.568H161.885H166.885V121.36H161.885ZM161.885 123.568L165.85 126.614C167.182 124.88 168.453 123.877 169.603 123.33L167.453 118.816L165.303 114.302C162.42 115.675 159.98 117.84 157.92 120.522L161.885 123.568ZM167.453 118.816L169.633 123.316C170.859 122.722 172.513 122.328 174.749 122.328V117.328V112.328C171.353 112.328 168.143 112.926 165.273 114.316L167.453 118.816ZM174.749 117.328V122.328H175.997V117.328V112.328H174.749V117.328ZM175.997 117.328V122.328C179.589 122.328 181.842 122.85 183.146 123.493L185.357 119.008L187.568 114.523C184.327 112.926 180.341 112.328 175.997 112.328V117.328ZM185.357 119.008L183.197 123.518C184.353 124.071 185.298 124.97 186.034 126.502L190.541 124.336L195.048 122.17C193.416 118.774 190.904 116.121 187.516 114.498L185.357 119.008ZM190.541 124.336L194.693 127.122C196.118 124.997 197.378 123.872 198.358 123.324L195.917 118.96L193.476 114.596C190.68 116.16 188.355 118.619 186.389 121.55L190.541 124.336ZM195.917 118.96L198.382 123.31C199.347 122.763 200.849 122.328 203.165 122.328V117.328V112.328C199.656 112.328 196.326 112.981 193.452 114.61L195.917 118.96ZM203.165 117.328V122.328H207.101V117.328V112.328H203.165V117.328ZM256.463 160.768L252.911 164.287L252.927 164.304L252.944 164.32L256.463 160.768ZM258.287 101.92L261.822 98.3845L261.822 98.3845L258.287 101.92ZM260.495 152.56L255.868 154.456L255.882 154.488L255.895 154.52L260.495 152.56ZM264.671 156.736L262.71 161.336L262.742 161.349L262.775 161.363L264.671 156.736ZM292.319 156.736L294.215 161.363L294.247 161.349L294.279 161.336L292.319 156.736ZM296.447 152.56L291.847 150.6L291.834 150.632L291.82 150.664L296.447 152.56ZM300.527 160.768L304.062 164.304L304.07 164.295L304.079 164.287L300.527 160.768ZM272.735 166V161C266.099 161 262.199 159.413 259.982 157.216L256.463 160.768L252.944 164.32C257.766 169.099 264.715 171 272.735 171V166ZM256.463 160.768L260.015 157.249C257.818 155.032 256.231 151.132 256.231 144.496H251.231H246.231C246.231 152.516 248.132 159.464 252.911 164.287L256.463 160.768ZM251.231 144.496H256.231V104.944H251.231H246.231V144.496H251.231ZM251.231 104.944H256.231C256.231 104.674 256.266 104.641 256.226 104.761C256.178 104.906 256.049 105.181 255.774 105.456L252.239 101.92L248.703 98.3845C246.763 100.325 246.231 102.829 246.231 104.944H251.231ZM252.239 101.92L255.774 105.456C255.5 105.73 255.225 105.859 255.08 105.907C254.96 105.948 254.993 105.912 255.263 105.912V100.912V95.912C253.148 95.912 250.644 96.4441 248.703 98.3845L252.239 101.92ZM255.263 100.912V105.912C255.533 105.912 255.566 105.948 255.446 105.907C255.301 105.859 255.026 105.73 254.751 105.456L258.287 101.92L261.822 98.3845C259.882 96.4441 257.378 95.912 255.263 95.912V100.912ZM258.287 101.92L254.751 105.456C254.477 105.181 254.348 104.906 254.299 104.761C254.259 104.641 254.295 104.674 254.295 104.944H259.295H264.295C264.295 102.829 263.763 100.325 261.822 98.3845L258.287 101.92ZM259.295 104.944H254.295V144.496H259.295H264.295V104.944H259.295ZM259.295 144.496H254.295C254.295 148.215 254.716 151.643 255.868 154.456L260.495 152.56L265.121 150.664C264.674 149.573 264.295 147.625 264.295 144.496H259.295ZM260.495 152.56L255.895 154.52C257.233 157.66 259.571 159.998 262.71 161.336L264.671 156.736L266.631 152.136C265.867 151.81 265.42 151.364 265.094 150.6L260.495 152.56ZM264.671 156.736L262.775 161.363C265.587 162.515 269.016 162.936 272.735 162.936V157.936V152.936C269.606 152.936 267.658 152.557 266.567 152.109L264.671 156.736ZM272.735 157.936V162.936H284.255V157.936V152.936H272.735V157.936ZM284.255 157.936V162.936C287.974 162.936 291.402 162.515 294.215 161.363L292.319 156.736L290.423 152.109C289.331 152.557 287.384 152.936 284.255 152.936V157.936ZM292.319 156.736L294.279 161.336C297.433 159.991 299.771 157.633 301.073 154.456L296.447 152.56L291.82 150.664C291.522 151.391 291.109 151.817 290.358 152.136L292.319 156.736ZM296.447 152.56L301.046 154.52C302.255 151.684 302.695 148.23 302.695 144.496H297.695H292.695C292.695 147.61 292.302 149.532 291.847 150.6L296.447 152.56ZM297.695 144.496H302.695V104.944H297.695H292.695V144.496H297.695ZM297.695 104.944H302.695C302.695 104.674 302.73 104.641 302.69 104.761C302.642 104.906 302.513 105.181 302.238 105.456L298.703 101.92L295.167 98.3845C293.227 100.325 292.695 102.829 292.695 104.944H297.695ZM298.703 101.92L302.238 105.456C301.964 105.73 301.689 105.859 301.544 105.907C301.424 105.948 301.457 105.912 301.727 105.912V100.912V95.912C299.612 95.912 297.108 96.4441 295.167 98.3845L298.703 101.92ZM301.727 100.912V105.912C301.997 105.912 302.03 105.948 301.91 105.907C301.765 105.859 301.49 105.73 301.215 105.456L304.751 101.92L308.286 98.3845C306.346 96.4441 303.842 95.912 301.727 95.912V100.912ZM304.751 101.92L301.215 105.456C300.941 105.181 300.812 104.906 300.763 104.761C300.723 104.641 300.759 104.674 300.759 104.944H305.759H310.759C310.759 102.829 310.227 100.325 308.286 98.3845L304.751 101.92ZM305.759 104.944H300.759V144.496H305.759H310.759V104.944H305.759ZM305.759 144.496H300.759C300.759 151.132 299.172 155.032 296.975 157.249L300.527 160.768L304.079 164.287C308.858 159.464 310.759 152.516 310.759 144.496H305.759ZM300.527 160.768L296.991 157.232C294.816 159.408 290.935 161 284.255 161V166V171C292.295 171 299.262 169.104 304.062 164.304L300.527 160.768ZM284.255 166V161H272.735V166V171H284.255V166ZM369.606 165.616L371.525 160.999L371.469 160.976L371.413 160.954L369.606 165.616ZM367.302 160.336L362.67 158.455L362.668 158.459L367.302 160.336ZM390.15 104.08L385.599 102.011L385.556 102.104L385.518 102.199L390.15 104.08ZM394.854 100.912L395.085 95.9173L394.97 95.912H394.854V100.912ZM399.078 104.08L394.382 105.795L394.417 105.892L394.457 105.989L399.078 104.08ZM422.31 160.336L426.945 158.459L426.938 158.443L426.932 158.427L422.31 160.336ZM420.102 165.616L421.929 170.27L421.939 170.266L421.949 170.262L420.102 165.616ZM414.822 163.408L419.461 161.541L419.453 161.522L419.445 161.502L414.822 163.408ZM409.638 150.832L414.261 148.926L412.985 145.832H409.638V150.832ZM379.734 150.832V145.832H376.328L375.081 149.003L379.734 150.832ZM374.79 163.408L379.437 165.255L379.44 165.246L379.444 165.237L374.79 163.408ZM382.902 142.768L378.251 140.934L375.556 147.768H382.902V142.768ZM406.326 142.768V147.768H413.786L410.951 140.868L406.326 142.768ZM394.374 113.68L398.999 111.78L394.279 100.293L389.723 111.846L394.374 113.68ZM369.606 165.616L371.413 160.954C371.144 160.85 371.116 160.798 371.209 160.875C371.321 160.968 371.534 161.188 371.693 161.552C371.852 161.917 371.871 162.229 371.861 162.386C371.854 162.516 371.832 162.471 371.937 162.213L367.302 160.336L362.668 158.459C361.866 160.439 361.413 162.998 362.528 165.552C363.639 168.097 365.815 169.509 367.8 170.278L369.606 165.616ZM367.302 160.336L371.935 162.217L394.783 105.961L390.15 104.08L385.518 102.199L362.67 158.455L367.302 160.336ZM390.15 104.08L394.702 106.149C394.805 105.923 394.885 105.807 394.919 105.764C394.95 105.724 394.938 105.75 394.872 105.796C394.84 105.818 394.803 105.84 394.762 105.86C394.721 105.88 394.684 105.894 394.653 105.903C394.589 105.922 394.583 105.912 394.662 105.912V100.912V95.912C392.733 95.912 390.814 96.4262 389.125 97.6119C387.475 98.7706 386.352 100.353 385.599 102.011L390.15 104.08ZM394.662 100.912V105.912H394.854V100.912V95.912H394.662V100.912ZM394.854 100.912L394.624 105.907C394.748 105.912 394.77 105.928 394.72 105.912C394.664 105.893 394.571 105.851 394.47 105.776C394.371 105.701 394.317 105.633 394.3 105.61C394.288 105.592 394.325 105.639 394.382 105.795L399.078 104.08L403.775 102.365C403.148 100.648 402.105 99.0017 400.47 97.776C398.826 96.5426 396.94 96.0029 395.085 95.9173L394.854 100.912ZM399.078 104.08L394.457 105.989L417.689 162.245L422.31 160.336L426.932 158.427L403.7 102.171L399.078 104.08ZM422.31 160.336L417.676 162.213C417.907 162.783 417.589 162.4 417.913 161.623C418.065 161.26 418.277 161.028 418.403 160.921C418.508 160.831 418.5 160.872 418.256 160.97L420.102 165.616L421.949 170.262C423.929 169.476 426.071 168.036 427.139 165.481C428.2 162.944 427.738 160.417 426.945 158.459L422.31 160.336ZM420.102 165.616L418.276 160.962C417.707 161.185 418.069 160.883 418.815 161.195C419.166 161.342 419.393 161.546 419.501 161.672C419.593 161.778 419.555 161.775 419.461 161.541L414.822 163.408L410.184 165.275C410.98 167.252 412.425 169.362 414.957 170.421C417.464 171.469 419.969 171.039 421.929 170.27L420.102 165.616ZM414.822 163.408L419.445 161.502L414.261 148.926L409.638 150.832L405.016 152.738L410.2 165.314L414.822 163.408ZM409.638 150.832V145.832H379.734V150.832V155.832H409.638V150.832ZM379.734 150.832L375.081 149.003L370.137 161.579L374.79 163.408L379.444 165.237L384.388 152.661L379.734 150.832ZM374.79 163.408L370.144 161.561C369.927 162.107 369.982 161.576 370.791 161.232C371.608 160.884 372.044 161.215 371.525 160.999L369.606 165.616L367.688 170.233C369.633 171.041 372.165 171.516 374.71 170.432C377.246 169.352 378.662 167.205 379.437 165.255L374.79 163.408ZM382.902 142.768V147.768H406.326V142.768V137.768H382.902V142.768ZM406.326 142.768L410.951 140.868L398.999 111.78L394.374 113.68L389.75 115.58L401.702 144.668L406.326 142.768ZM394.374 113.68L389.723 111.846L378.251 140.934L382.902 142.768L387.554 144.602L399.026 115.514L394.374 113.68ZM446.216 165.04L442.595 168.488L442.679 168.577L442.768 168.661L446.216 165.04ZM446.216 101.968L442.768 98.3473L442.723 98.3894L442.68 98.4325L446.216 101.968ZM452.36 101.968L455.895 98.4325L455.895 98.4325L452.36 101.968ZM452.36 165.04L455.895 168.576L455.939 168.532L455.981 168.488L452.36 165.04ZM449.288 166V161C448.97 161 448.894 160.961 448.979 160.988C449.085 161.021 449.364 161.134 449.664 161.419L446.216 165.04L442.768 168.661C444.733 170.533 447.239 171 449.288 171V166ZM446.216 165.04L449.837 161.592C450.122 161.892 450.235 162.171 450.268 162.277C450.295 162.361 450.256 162.285 450.256 161.968H445.256H440.256C440.256 164.017 440.723 166.523 442.595 168.488L446.216 165.04ZM445.256 161.968H450.256V105.04H445.256H440.256V161.968H445.256ZM445.256 105.04H450.256C450.256 104.693 450.298 104.613 450.268 104.707C450.232 104.824 450.1 105.155 449.751 105.504L446.216 101.968L442.68 98.4325C440.695 100.418 440.256 103.023 440.256 105.04H445.256ZM446.216 101.968L449.664 105.589C449.364 105.874 449.085 105.987 448.979 106.02C448.894 106.047 448.97 106.008 449.288 106.008V101.008V96.008C447.239 96.008 444.733 96.4752 442.768 98.3473L446.216 101.968ZM449.288 101.008V106.008C449.635 106.008 449.715 106.05 449.621 106.02C449.504 105.984 449.173 105.852 448.824 105.504L452.36 101.968L455.895 98.4325C453.91 96.4468 451.305 96.008 449.288 96.008V101.008ZM452.36 101.968L448.824 105.504C448.476 105.155 448.344 104.824 448.307 104.707C448.278 104.613 448.32 104.693 448.32 105.04H453.32H458.32C458.32 103.023 457.881 100.418 455.895 98.4325L452.36 101.968ZM453.32 105.04H448.32V161.968H453.32H458.32V105.04H453.32ZM453.32 161.968H448.32C448.32 162.285 448.281 162.361 448.307 162.277C448.341 162.171 448.454 161.892 448.739 161.592L452.36 165.04L455.981 168.488C457.853 166.523 458.32 164.017 458.32 161.968H453.32ZM452.36 165.04L448.824 161.504C449.173 161.156 449.504 161.024 449.621 160.988C449.715 160.958 449.635 161 449.288 161V166V171C451.305 171 453.91 170.561 455.895 168.576L452.36 165.04Z" fill="white"/>
<path d="M494 36H497C509.703 36 520 46.2975 520 59V201C520 213.703 509.703 224 497 224H494" stroke="white" stroke-width="10" stroke-linecap="round"/>
<path d="M31 224H28C15.2975 224 5 213.703 5 201V130V59C5 46.2974 15.2975 36 28 36H31" stroke="white" stroke-width="10" stroke-linecap="round"/>
<path d="M443.37 11.4209C445.172 6.14718 452.463 5.98207 454.601 10.9375L454.788 11.4375L457.418 19.1309C458.045 20.9656 459.058 22.6447 460.389 24.0547C461.72 25.4647 463.338 26.5731 465.134 27.3047L465.147 27.3105L465.856 27.5742V27.5752L465.869 27.5791L473.575 30.2109C478.847 32.0126 479.013 39.2998 474.065 41.4395L473.567 41.627L465.869 44.2598C464.034 44.8864 462.354 45.8994 460.943 47.2305C459.621 48.4784 458.564 49.9789 457.834 51.6416L457.692 51.9766L457.688 51.9893L457.423 52.6943L457.42 52.7012L457.418 52.709L454.786 60.418C452.984 65.6923 445.692 65.8563 443.559 60.9043L443.367 60.4102L440.738 52.7119C440.112 50.8764 439.099 49.1968 437.768 47.7861C436.52 46.4637 435.02 45.4059 433.357 44.6758L433.022 44.5342L433.009 44.5293L432.304 44.2646L432.297 44.2617L432.29 44.2598L424.584 41.6279C419.313 39.8276 419.143 32.5504 424.081 30.4072L424.592 30.208L432.29 27.5791C434.125 26.9521 435.804 25.9386 437.214 24.6074C438.536 23.3595 439.593 21.8596 440.322 20.1973L440.464 19.8623L440.469 19.8496L440.733 19.1445L440.736 19.1377L440.738 19.1299L443.37 11.4209ZM448.604 13.207L445.974 20.9131C445.078 23.5393 443.619 25.939 441.701 27.9443C439.783 29.9495 437.452 31.5123 434.868 32.5244L434.063 32.8174L426.367 35.4463L424.981 35.9199L426.367 36.3926L434.073 39.0244C436.699 39.9205 439.098 41.379 441.104 43.2969C443.109 45.2147 444.672 47.5464 445.684 50.1299L445.977 50.9346L448.604 58.6318L449.078 60.0176L449.552 58.6318L452.183 50.9258H452.184C453.08 48.2996 454.537 45.8998 456.455 43.8945C458.371 41.8911 460.7 40.3286 463.281 39.3164L464.091 39.0254L464.09 39.0244L471.79 36.3926L473.174 35.9189L471.789 35.4463L464.083 32.8145C461.457 31.9184 459.058 30.4608 457.053 28.543C455.173 26.7449 453.682 24.5825 452.669 22.1904L452.473 21.709L452.184 20.9053L449.551 13.207L449.078 11.8223L448.604 13.207ZM475.199 0.5H475.2C475.717 0.500034 476.224 0.645253 476.663 0.918945C477.099 1.19061 477.45 1.57817 477.678 2.03809L477.819 2.38379L478.959 5.72266L479.038 5.95508L479.271 6.03418L482.624 7.17676V7.17773C483.142 7.35385 483.597 7.67964 483.93 8.11426C484.263 8.54895 484.459 9.07271 484.494 9.61914C484.529 10.1656 484.401 10.71 484.126 11.1836C483.852 11.6559 483.444 12.0355 482.954 12.2764L482.604 12.4189L479.273 13.5547L479.041 13.6348L478.962 13.8672L477.819 17.2207C477.643 17.739 477.316 18.1937 476.881 18.5264C476.446 18.8588 475.922 19.0542 475.376 19.0889C474.83 19.1235 474.285 18.9957 473.812 18.7207C473.341 18.4474 472.962 18.0413 472.722 17.5537L472.579 17.207L471.441 13.8701L471.362 13.6377L471.13 13.5586L467.776 12.415H467.775C467.257 12.2389 466.803 11.9131 466.47 11.4785C466.137 11.0439 465.94 10.52 465.905 9.97363C465.87 9.42717 465.999 8.8818 466.273 8.4082C466.546 7.93938 466.949 7.56041 467.435 7.31934L467.782 7.17773L471.126 6.03711L471.359 5.95801L471.438 5.72559L472.581 2.37207C472.768 1.82573 473.12 1.35135 473.59 1.01562C474.059 0.679985 474.622 0.499754 475.199 0.5Z" fill="white" stroke="white"/>
</svg>
